<?xml version="1.0" standalone="no"?>
<!DOCTYPE svg PUBLIC "-//W3C//DTD SVG 20010904//EN"
 "http://www.w3.org/TR/2001/REC-SVG-20010904/DTD/svg10.dtd">
<svg version="1.0" xmlns="http://www.w3.org/2000/svg"
 width="87.000000pt" height="105.000000pt" viewBox="0 0 87.000000 105.000000"
 preserveAspectRatio="xMidYMid meet">

<g transform="translate(0.000000,105.000000) scale(0.100000,-0.100000)"
fill="#000000" stroke="none">
<path d="M272 1008 c38 -38 53 -40 18 -3 -28 30 -13 33 24 4 33 -26 38 -85 6
-76 -10 3 -24 -1 -31 -9 -17 -21 -47 1 -52 39 l-4 32 -1 -32 c-2 -30 -5 -33
-32 -33 -26 0 -30 -3 -29 -27 2 -24 2 -25 6 -5 5 24 15 27 44 12 16 -9 19 -23
21 -93 l2 -82 5 75 c5 56 2 79 -8 93 -18 22 2 23 24 0 14 -13 18 -14 25 -3 6
10 14 4 30 -22 16 -28 28 -37 55 -40 20 -2 35 0 35 7 0 5 5 27 11 49 l11 38
30 -28 31 -29 -19 29 c-18 29 -18 29 3 18 12 -7 31 -24 42 -38 12 -15 21 -22
21 -15 0 6 -13 23 -29 37 -19 16 -27 32 -24 42 4 9 2 13 -4 9 -6 -4 -14 4 -17
18 -9 36 -96 76 -96 44 0 -5 5 -7 11 -4 5 4 19 -1 30 -11 10 -9 19 -14 19 -9
0 4 7 2 15 -5 21 -17 19 -50 -2 -50 -12 0 -14 3 -6 8 7 4 9 13 4 21 -6 9 -10
6 -15 -13 -3 -14 -11 -37 -16 -51 l-10 -26 -29 23 c-23 19 -27 27 -20 46 15
41 -36 92 -92 92 -18 0 -17 -4 13 -32z m97 -114 c38 -32 39 -44 3 -44 -28 0
-32 4 -60 63 -9 17 29 5 57 -19z"/>
<path d="M507 1007 c-4 -10 3 -12 24 -9 23 3 31 -2 48 -29 12 -19 21 -29 21
-22 0 35 -82 88 -93 60z"/>
<path d="M532 970 c0 -14 2 -19 5 -12 2 6 2 18 0 25 -3 6 -5 1 -5 -13z"/>
<path d="M634 935 c-19 -35 -34 -45 -34 -22 0 6 -13 -15 -29 -48 -16 -33 -30
-53 -31 -45 -1 14 -30 -65 -30 -84 0 -6 17 22 37 62 22 42 43 70 50 68 8 -3
10 1 6 12 -6 15 -4 15 15 -2 18 -15 21 -27 17 -63 -2 -24 -14 -65 -25 -90 -11
-25 -19 -48 -17 -50 2 -1 20 34 40 79 36 80 48 88 61 43 3 -12 4 -9 2 8 -4 31
8 34 38 10 20 -17 20 -17 4 1 -13 15 -14 24 -6 42 11 24 -2 74 -26 92 -32 26
-53 23 -72 -13z m75 -11 c23 -30 28 -55 9 -50 -7 1 -10 1 -5 -1 11 -7 8 -33
-4 -33 -6 0 -20 5 -31 11 -15 8 -19 8 -14 0 4 -6 4 -11 -1 -11 -4 0 -15 13
-24 28 -14 25 -14 32 -2 55 17 34 46 34 72 1z"/>
<path d="M670 904 c0 -19 4 -33 8 -30 8 5 4 66 -4 66 -2 0 -4 -16 -4 -36z"/>
<path d="M534 928 c-3 -5 -3 -12 0 -15 3 -4 6 -2 6 4 0 6 9 9 20 6 11 -3 20
-3 20 0 0 10 -40 15 -46 5z"/>
<path d="M268 850 c2 -16 6 -30 8 -30 2 0 4 14 4 30 0 17 -4 30 -8 30 -5 0 -7
-13 -4 -30z"/>
<path d="M490 851 c0 -25 6 -27 13 -6 4 8 2 17 -3 20 -6 4 -10 -3 -10 -14z"/>
<path d="M603 835 c-3 -9 -3 -18 -1 -21 3 -3 8 4 11 16 6 23 -1 27 -10 5z"/>
<path d="M98 823 c-14 -3 -18 -14 -16 -41 l1 -37 4 33 c3 25 8 32 19 28 8 -3
13 -2 9 3 -3 5 1 12 7 14 16 7 0 6 -24 0z"/>
<path d="M165 803 c24 -14 27 -18 12 -21 -10 -2 -26 2 -35 10 -16 12 -16 11 0
-7 9 -11 18 -33 21 -50 l4 -30 2 33 c0 21 6 32 16 32 8 0 15 4 15 8 0 14 -35
42 -51 42 -8 -1 0 -8 16 -17z"/>
<path d="M391 804 c0 -11 3 -14 6 -6 3 7 2 16 -1 19 -3 4 -6 -2 -5 -13z"/>
<path d="M481 804 c0 -11 3 -14 6 -6 3 7 2 16 -1 19 -3 4 -6 -2 -5 -13z"/>
<path d="M332 780 c0 -19 2 -27 5 -17 2 9 2 25 0 35 -3 9 -5 1 -5 -18z"/>
<path d="M262 770 c0 -19 2 -27 5 -17 2 9 2 25 0 35 -3 9 -5 1 -5 -18z"/>
<path d="M381 764 c0 -11 3 -14 6 -6 3 7 2 16 -1 19 -3 4 -6 -2 -5 -13z"/>
<path d="M581 754 c0 -11 3 -14 6 -6 3 7 2 16 -1 19 -3 4 -6 -2 -5 -13z"/>
<path d="M761 760 c-2 -8 -4 -26 -7 -40 -3 -21 -2 -22 7 -7 6 10 8 28 6 40 -2
12 -5 15 -6 7z"/>
<path d="M203 725 c0 -22 2 -30 4 -17 2 12 2 30 0 40 -3 9 -5 -1 -4 -23z"/>
<path d="M456 724 c-4 -14 -5 -28 -3 -31 3 -2 8 8 11 23 4 14 5 28 3 31 -3 2
-8 -8 -11 -23z"/>
<path d="M372 720 c0 -14 2 -19 5 -12 2 6 2 18 0 25 -3 6 -5 1 -5 -13z"/>
<path d="M682 715 c-17 -37 -14 -45 4 -12 9 16 14 31 11 33 -2 2 -9 -7 -15
-21z"/>
<path d="M92 700 c0 -19 2 -27 5 -17 2 9 2 25 0 35 -3 9 -5 1 -5 -18z"/>
<path d="M250 699 c0 -11 -4 -17 -10 -14 -5 3 -10 1 -10 -4 0 -6 8 -11 19 -11
14 0 17 6 13 25 -5 30 -12 33 -12 4z"/>
<path d="M321 708 c0 -9 -11 -19 -23 -21 -13 -2 2 -4 32 -4 30 0 43 2 28 4
-15 2 -29 12 -31 21 -4 16 -5 16 -6 0z"/>
<path d="M490 676 c0 -8 -5 -16 -12 -18 -8 -3 -7 -6 3 -10 10 -4 15 1 17 18 1
13 0 24 -3 24 -3 0 -5 -6 -5 -14z"/>
<path d="M408 673 c7 -3 16 -2 19 1 4 3 -2 6 -13 5 -11 0 -14 -3 -6 -6z"/>
<path d="M440 670 c0 -5 5 -10 11 -10 5 0 7 5 4 10 -3 6 -8 10 -11 10 -2 0 -4
-4 -4 -10z"/>
<path d="M166 653 c-4 -9 3 -9 25 -1 36 12 37 16 4 14 -14 0 -27 -6 -29 -13z"/>
<path d="M551 654 c0 -11 3 -14 6 -6 3 7 2 16 -1 19 -3 4 -6 -2 -5 -13z"/>
<path d="M702 636 c-16 -19 -38 -48 -48 -65 -31 -53 -47 -35 -18 20 8 17 13
33 11 35 -2 3 -10 -9 -17 -26 -7 -16 -16 -30 -20 -30 -17 0 -40 38 -34 56 6
18 6 18 -9 -1 -9 -11 -17 -15 -17 -9 0 7 -9 14 -20 17 -28 7 -25 3 20 -27 22
-14 55 -48 73 -76 l34 -50 47 70 c25 38 52 70 59 71 6 0 2 4 -10 9 -31 13 -29
28 5 33 l27 4 -26 2 c-19 1 -36 -9 -57 -33z m38 -13 c0 -15 -83 -122 -91 -118
-16 10 -10 29 26 82 24 36 40 50 50 47 8 -4 15 -8 15 -11z"/>
<path d="M98 620 c-4 -24 -6 -46 -5 -47 1 -1 13 7 27 18 20 15 21 18 5 12 -18
-6 -19 -5 -5 12 8 10 10 16 3 12 -7 -5 -13 1 -15 15 -2 15 -6 6 -10 -22z"/>
<path d="M824 638 l26 -23 -76 -102 c-41 -57 -80 -103 -85 -103 -5 0 -9 -17
-9 -37 0 -28 -3 -34 -10 -23 -8 12 -10 10 -10 -10 0 -14 -32 -73 -75 -138 -41
-61 -73 -112 -70 -112 12 0 175 259 175 277 0 11 28 58 63 104 35 46 74 99 87
118 l23 34 -22 18 c-33 27 -47 23 -17 -3z"/>
<path d="M273 643 c20 -2 54 -2 75 0 20 2 3 4 -38 4 -41 0 -58 -2 -37 -4z"/>
<path d="M208 633 c7 -3 16 -2 19 1 4 3 -2 6 -13 5 -11 0 -14 -3 -6 -6z"/>
<path d="M398 633 c7 -3 16 -2 19 1 4 3 -2 6 -13 5 -11 0 -14 -3 -6 -6z"/>
<path d="M160 620 c-8 -5 -10 -10 -5 -10 6 0 17 5 25 10 8 5 11 10 5 10 -5 0
-17 -5 -25 -10z"/>
<path d="M440 620 c8 -5 20 -10 25 -10 6 0 3 5 -5 10 -8 5 -19 10 -25 10 -5 0
-3 -5 5 -10z"/>
<path d="M500 593 c14 -9 46 -39 73 -65 26 -26 47 -46 47 -43 0 14 -87 98
-114 111 -31 14 -31 14 -6 -3z"/>
<path d="M81 544 c0 -11 3 -14 6 -6 3 7 2 16 -1 19 -3 4 -6 -2 -5 -13z"/>
<path d="M41 384 c0 -11 3 -14 6 -6 3 7 2 16 -1 19 -3 4 -6 -2 -5 -13z"/>
<path d="M651 384 c0 -11 3 -14 6 -6 3 7 2 16 -1 19 -3 4 -6 -2 -5 -13z"/>
<path d="M31 344 c0 -11 3 -14 6 -6 3 7 2 16 -1 19 -3 4 -6 -2 -5 -13z"/>
<path d="M21 294 c0 -11 3 -14 6 -6 3 7 2 16 -1 19 -3 4 -6 -2 -5 -13z"/>
<path d="M11 229 c-1 -43 11 -55 96 -98 92 -46 91 -37 -2 12 -76 40 -80 44
-86 82 l-6 40 -2 -36z"/>
<path d="M200 90 c8 -5 20 -10 25 -10 6 0 3 5 -5 10 -8 5 -19 10 -25 10 -5 0
-3 -5 5 -10z"/>
<path d="M250 70 c8 -5 20 -10 25 -10 6 0 3 5 -5 10 -8 5 -19 10 -25 10 -5 0
-3 -5 5 -10z"/>
<path d="M474 43 c-15 -20 -23 -33 -16 -29 13 8 56 66 49 66 -3 0 -17 -17 -33
-37z"/>
<path d="M315 46 c17 -7 41 -16 55 -20 20 -5 19 -3 -5 8 -16 7 -41 16 -55 20
-20 5 -19 3 5 -8z"/>
<path d="M408 13 c7 -3 16 -2 19 1 4 3 -2 6 -13 5 -11 0 -14 -3 -6 -6z"/>
</g>
</svg>
