<?xml version="1.0" encoding="UTF-8"?>
<svg version="1.1" xmlns="http://www.w3.org/2000/svg" width="512" height="512">
<path d="M0 0 C1.17798912 -0.00574036 1.17798912 -0.00574036 2.379776 -0.01159668 C4.03989952 -0.01431726 5.70006579 -0.00694566 7.36010742 0.00976562 C9.89794893 0.03114715 12.43295058 0.00998648 14.97070312 -0.015625 C16.58464166 -0.01298119 18.19857842 -0.00785509 19.8125 0 C20.56989975 -0.00809692 21.3272995 -0.01619385 22.10765076 -0.02453613 C25.37893534 0.0334952 27.50363617 0.18653179 30.17622375 2.15081787 C32.55602991 5.30427176 32.4562945 7.20736247 32.42675781 11.13574219 C32.42734192 11.78981552 32.42792603 12.44388885 32.42852783 13.11778259 C32.42574924 15.27177694 32.39467173 17.42437356 32.36328125 19.578125 C32.35581797 21.07455693 32.35012544 22.57099864 32.34613037 24.06744385 C32.33088064 28.0000929 32.29160537 31.93214807 32.24731445 35.86456299 C32.20634699 39.87967902 32.18811626 43.89489131 32.16796875 47.91015625 C32.12510973 55.78412626 32.05686728 63.65761419 31.97265625 71.53125 C32.92764008 71.52236755 33.8826239 71.51348511 34.86654663 71.5043335 C43.89907667 71.42298489 52.93153166 71.36315909 61.96434593 71.32400131 C66.60740898 71.30319254 71.25017453 71.27499868 75.89306641 71.22949219 C80.37996947 71.18579353 84.86658772 71.16206251 89.35368729 71.15174103 C91.05919498 71.14439252 92.7646884 71.13004325 94.4700737 71.10832977 C106.72621897 70.95859231 116.8583813 71.69552773 126.21484375 80.46484375 C133.78653177 89.36578366 134.18255413 98.72188955 134.21289062 109.85791016 C134.22262435 112.02414957 134.25368629 114.18945056 134.28515625 116.35546875 C134.2916845 117.73697356 134.29693567 119.11848512 134.30078125 120.5 C134.31012695 121.75232422 134.31947266 123.00464844 134.32910156 124.29492188 C133.94794488 127.75561571 133.44259472 129.12642415 130.97265625 131.53125 C127.20965251 132.78558458 123.70054716 132.63820422 119.78515625 132.59375 C119.03556641 132.58923828 118.28597656 132.58472656 117.51367188 132.58007812 C115.66663242 132.56831354 113.81963412 132.55037865 111.97265625 132.53125 C111.64265625 136.16125 111.31265625 139.79125 110.97265625 143.53125 C111.78531952 143.1776088 112.59798279 142.82396759 113.43527222 142.45960999 C126.8408425 137.41755275 140.22780306 137.8091252 154.38469934 137.89255404 C157.94152116 137.90916858 161.4983007 137.90009682 165.05514526 137.89503479 C171.02110449 137.89054005 176.98674751 137.90622218 182.95263672 137.93432617 C189.81248571 137.96639585 196.67176594 137.96634239 203.53165543 137.9491114 C210.18241831 137.93315345 216.8329762 137.94003707 223.48373032 137.95704842 C226.29121357 137.96385236 229.09852917 137.96295623 231.90600967 137.95550346 C235.83875845 137.94629731 239.77094105 137.97057297 243.70361328 137.99780273 C244.84373871 137.99127686 245.98386414 137.98475098 247.15853882 137.97802734 C266.11019352 138.19927298 282.80599419 146.17700321 295.97265625 159.53125 C310.29990572 176.12312922 313.65460283 193.81204739 313.43920898 215.07592773 C313.40985807 218.251006 313.41871662 221.42444926 313.43164062 224.59960938 C313.42541326 226.62240395 313.41703021 228.64519331 313.40625 230.66796875 C313.40918564 231.61475998 313.41212128 232.56155121 313.41514587 233.53703308 C313.4024617 234.41257339 313.38977753 235.28811371 313.37670898 236.19018555 C313.371306 236.9584819 313.36590302 237.72677826 313.3603363 238.51835632 C312.86602973 241.08487107 311.97735284 241.89868569 309.97265625 243.53125 C308.48765625 244.52125 308.48765625 244.52125 306.97265625 245.53125 C307.32199219 246.13453125 307.67132813 246.7378125 308.03125 247.359375 C308.48628906 248.15859375 308.94132812 248.9578125 309.41015625 249.78125 C309.86261719 250.57015625 310.31507813 251.3590625 310.78125 252.171875 C314.63120183 259.7960419 313.96991542 270.53894656 312.32421875 278.77734375 C310.17847179 285.24209422 306.64237067 290.58549334 301.97265625 295.53125 C301.31265625 295.86125 300.65265625 296.19125 299.97265625 296.53125 C301.27721691 299.38885908 302.70520588 301.49448951 304.84765625 303.78125 C312.8922485 312.92730231 313.67118901 322.67714795 313.16943359 334.42382812 C312.5894753 340.6349944 309.75440995 346.05545555 306.97265625 351.53125 C307.59140625 351.655 308.21015625 351.77875 308.84765625 351.90625 C310.97265625 352.53125 310.97265625 352.53125 312.97265625 354.53125 C313.25354004 356.51327515 313.25354004 356.51327515 313.29492188 358.97412109 C313.31413696 359.89623383 313.33335205 360.81834656 313.35314941 361.7684021 C313.36589905 363.27136337 313.36589905 363.27136337 313.37890625 364.8046875 C313.3903064 365.83880768 313.40170654 366.87292786 313.41345215 367.93838501 C313.43238061 370.13580218 313.4454314 372.33327649 313.453125 374.53076172 C313.47238167 377.85879505 313.53432348 381.18427419 313.59765625 384.51171875 C313.72529892 397.21156593 313.67859177 407.11277164 304.77148438 416.96630859 C296.8657889 424.93417946 288.14612035 426.94311979 277.19373906 427.05733597 C274.61131364 427.06244583 272.02940292 427.04790482 269.44702148 427.03295898 C267.57839553 427.0367469 265.70977239 427.04225083 263.84115601 427.04933167 C258.78953161 427.06324087 253.73824954 427.05214881 248.68664432 427.03562045 C243.38842961 427.02172306 238.09023383 427.02823529 232.79200745 427.03175354 C223.89749668 427.03445172 215.00312116 427.02101296 206.10864258 426.99780273 C195.83843209 426.97118735 185.56844754 426.96945 175.29821438 426.9811911 C165.40009014 426.99198489 155.5020473 426.98576975 145.60392952 426.97163582 C141.39959848 426.96589075 137.19532729 426.96594703 132.99099541 426.97070122 C128.03735504 426.97548739 123.08396086 426.96530147 118.13036728 426.94374657 C116.31679553 426.93820115 114.50320001 426.93769267 112.68962669 426.94269943 C99.44378609 426.97467103 88.93206639 426.28511885 78.97265625 416.53125 C75.98861607 412.76522864 73.4963246 409.10225504 71.97265625 404.53125 C61.77627382 404.34573311 51.580294 404.20366502 41.38256645 404.11675262 C36.64701526 404.07503389 31.91262015 404.01846958 27.17773438 403.92773438 C22.60647387 403.8406849 18.03632371 403.79295092 13.46429825 403.77223206 C11.72185916 403.75747165 9.97947962 403.72864555 8.2375145 403.68540955 C-1.03597939 403.10644266 -1.03597939 403.10644266 -9.39349365 406.22485352 C-10.98668228 408.28816829 -12.02839049 410.13154421 -13.02734375 412.53125 C-13.43042755 413.20458374 -13.83351135 413.87791748 -14.24880981 414.57165527 C-14.50572601 415.21832153 -14.76264221 415.86498779 -15.02734375 416.53125 C-13.80782062 419.35508218 -12.53519829 421.78432386 -10.96484375 424.40625 C-10.51963379 425.18202393 -10.07442383 425.95779785 -9.61572266 426.75708008 C-6.9707862 431.33756746 -4.22437575 435.85357092 -1.4609375 440.36328125 C-0.86998291 441.3373291 -0.27902832 442.31137695 0.32983398 443.31494141 C1.49018731 445.22092711 2.66508135 447.11815148 3.85571289 449.00537109 C6.96477295 454.10039874 8.89360782 457.52165077 7.97265625 463.53125 C6.47265625 465.96875 6.47265625 465.96875 3.97265625 467.53125 C-3.25282269 468.0799137 -9.98218011 466.52421137 -17.02734375 465.03125 C-18.76177734 464.67353516 -18.76177734 464.67353516 -20.53125 464.30859375 C-23.36481548 463.72314634 -26.19667846 463.13053499 -29.02734375 462.53125 C-29.92469532 464.90568543 -30.8201957 467.28079586 -31.71484375 469.65625 C-31.98594971 470.37312988 -32.25705566 471.09000977 -32.53637695 471.82861328 C-33.88655235 475.41670737 -35.20534074 479.00880791 -36.43359375 482.640625 C-36.85640625 483.88328125 -37.27921875 485.1259375 -37.71484375 486.40625 C-38.08996094 487.53804688 -38.46507812 488.66984375 -38.8515625 489.8359375 C-40.02734375 492.53125 -40.02734375 492.53125 -43.02734375 494.53125 C-46.46484375 494.90625 -46.46484375 494.90625 -50.02734375 494.53125 C-53.4620932 491.69796968 -55.44068545 488.39926247 -57.6015625 484.54296875 C-57.92647675 483.96692902 -58.25139099 483.39088928 -58.58615112 482.7973938 C-59.2770269 481.57173151 -59.96530165 480.34459996 -60.65115356 479.11611938 C-61.72258546 477.20494064 -62.80901082 475.30306561 -63.90014648 473.40307617 C-66.92234609 468.12804499 -69.92312145 462.86965388 -72.55078125 457.3828125 C-75.43306318 450.92101011 -75.43306318 450.92101011 -80.85546875 446.84570312 C-85.28512766 445.92849322 -89.52874338 446.06301623 -94.02734375 446.53125 C-94.30191406 447.25473633 -94.57648438 447.97822266 -94.859375 448.72363281 C-95.98657248 451.43324215 -97.26742691 453.90230066 -98.71484375 456.453125 C-99.24416504 457.38866211 -99.77348633 458.32419922 -100.31884766 459.28808594 C-101.16455322 460.76970215 -101.16455322 460.76970215 -102.02734375 462.28125 C-102.89431885 463.80540527 -102.89431885 463.80540527 -103.77880859 465.36035156 C-105.52316344 468.42030277 -107.27388243 471.47650937 -109.02734375 474.53125 C-109.53555664 475.418125 -110.04376953 476.305 -110.56738281 477.21875 C-111.92237312 479.57685686 -113.28514346 481.93020574 -114.65234375 484.28125 C-115.05324219 484.97702148 -115.45414062 485.67279297 -115.8671875 486.38964844 C-119.61676204 492.78389712 -119.61676204 492.78389712 -122.02734375 494.53125 C-123.96484375 494.9296875 -123.96484375 494.9296875 -126.02734375 494.90625 C-126.70796875 494.91398437 -127.38859375 494.92171875 -128.08984375 494.9296875 C-130.66743607 494.39961811 -131.35224825 493.56116339 -133.02734375 491.53125 C-134.1940918 488.8515625 -134.1940918 488.8515625 -135.2890625 485.65625 C-135.68544922 484.50640625 -136.08183594 483.3565625 -136.49023438 482.171875 C-136.89435547 480.97046875 -137.29847656 479.7690625 -137.71484375 478.53125 C-138.33842773 476.72914063 -138.33842773 476.72914063 -138.97460938 474.890625 C-142.02734375 465.94796798 -142.02734375 465.94796798 -142.02734375 462.53125 C-142.76782959 462.68271484 -143.50831543 462.83417969 -144.27124023 462.99023438 C-147.66734965 463.6795844 -151.06600325 464.35549987 -154.46484375 465.03125 C-155.62951172 465.26972656 -156.79417969 465.50820313 -157.99414062 465.75390625 C-164.43276871 467.02349489 -170.46371837 468.11883803 -177.02734375 467.53125 C-179.20935479 465.75761125 -179.98733673 464.63103762 -181.046875 461.98828125 C-181.01639275 456.59292259 -178.37942463 452.80620794 -175.71484375 448.21875 C-175.17102051 447.25340332 -174.62719727 446.28805664 -174.06689453 445.29345703 C-172.40689791 442.36078021 -170.72237827 439.44379534 -169.02734375 436.53125 C-168.52509277 435.66677246 -168.0228418 434.80229492 -167.50537109 433.91162109 C-165.3528049 430.21805481 -163.18274841 426.53599749 -160.98828125 422.8671875 C-159.56541227 420.44660959 -158.22432289 418.06678645 -157.02734375 415.53125 C-157.57261719 414.93441406 -158.11789063 414.33757812 -158.6796875 413.72265625 C-177.98968391 391.50790825 -182.22099331 366.2130659 -181.02734375 337.53125 C-178.98652529 314.44762996 -164.98263875 292.61725006 -148.02734375 277.53125 C-130.91201026 263.60350379 -109.41301849 255.43029402 -87.30249023 255.51489258 C-86.49964096 255.51725418 -85.69679169 255.51961578 -84.86961365 255.52204895 C-83.95769005 255.52660347 -83.95769005 255.52660347 -83.02734375 255.53125 C-83.08003355 254.98111929 -83.13272335 254.43098858 -83.18700981 253.86418724 C-84.53426727 239.69447872 -85.63008285 225.52459335 -86.53515625 211.3203125 C-86.66664164 209.28582632 -86.79830856 207.25135187 -86.93014526 205.21688843 C-87.20251822 201.00375866 -87.47288035 196.79050642 -87.74169922 192.57714844 C-88.08536034 187.19302159 -88.43398924 181.80922961 -88.78405952 176.42551613 C-89.05532285 172.24598165 -89.32410501 168.06629046 -89.59212875 163.88654709 C-89.71977156 161.90027507 -89.84814927 159.91405014 -89.97729874 157.92787552 C-90.15680434 155.1612178 -90.33298473 152.39436736 -90.50830078 149.62744141 C-90.56126312 148.82114792 -90.61422546 148.01485443 -90.66879272 147.18412781 C-90.974646 142.28914877 -91.07371091 137.43591841 -91.02734375 132.53125 C-92.12433594 132.56605469 -93.22132812 132.60085937 -94.3515625 132.63671875 C-95.8059742 132.66486865 -97.26040255 132.69216752 -98.71484375 132.71875 C-99.43607422 132.74388672 -100.15730469 132.76902344 -100.90039062 132.79492188 C-105.50821439 132.85804275 -108.34085597 132.32959732 -112.02734375 129.53125 C-113.96621476 127.59237899 -113.23810539 123.95873455 -113.265625 121.3125 C-113.27369675 120.58059448 -113.28176849 119.84868896 -113.29008484 119.09460449 C-113.30394956 117.53770325 -113.31466098 115.98077131 -113.32250977 114.42382812 C-113.33957462 112.06839787 -113.38341623 109.71442656 -113.42773438 107.359375 C-113.5493983 95.73698738 -111.90137817 87.90654641 -103.81640625 79.25390625 C-97.17969456 72.86353539 -90.08004414 71.21222251 -81.07250977 71.30419922 C-80.31070908 71.30390717 -79.54890839 71.30361511 -78.76402283 71.30331421 C-76.26964551 71.30469706 -73.77557453 71.32020845 -71.28125 71.3359375 C-69.54247704 71.33967135 -67.80370197 71.34251657 -66.06492615 71.34451294 C-61.50617584 71.35212008 -56.94755458 71.37174328 -52.38885498 71.3939209 C-47.72995753 71.41444244 -43.07103907 71.42352811 -38.41210938 71.43359375 C-29.28379772 71.4549921 -20.1555815 71.48909254 -11.02734375 71.53125 C-11.0373365 70.28550201 -11.0373365 70.28550201 -11.04753113 69.0145874 C-11.10764908 61.18687602 -11.1533216 53.3592422 -11.18278027 45.531353 C-11.19843444 41.50696716 -11.21966795 37.48277212 -11.25366211 33.45849609 C-11.28626478 29.57462947 -11.30419863 25.69094634 -11.31197548 21.80695343 C-11.31751739 20.32537192 -11.32833947 18.84380042 -11.34453392 17.36229706 C-11.36632104 15.28655822 -11.36931026 13.21157702 -11.36791992 11.13574219 C-11.37791267 9.36369415 -11.37791267 9.36369415 -11.3881073 7.55584717 C-10.51894921 0.2689328 -6.48072175 -0.06909699 0 0 Z M3.97265625 14.53125 C3.97265625 33.34125 3.97265625 52.15125 3.97265625 71.53125 C8.26265625 71.53125 12.55265625 71.53125 16.97265625 71.53125 C16.97265625 52.72125 16.97265625 33.91125 16.97265625 14.53125 C12.68265625 14.53125 8.39265625 14.53125 3.97265625 14.53125 Z M-94.02734375 90.53125 C-99.68114021 99.08168418 -99.68114021 99.08168418 -98.02734375 117.53125 C-26.41734375 117.53125 45.19265625 117.53125 118.97265625 117.53125 C120.4208889 102.5379395 120.4208889 102.5379395 114.4375 90.88671875 C109.38010468 87.0192988 106.62150147 86.38253998 100.376297 86.38407898 C99.5832344 86.38040229 98.7901718 86.3767256 97.973077 86.3729375 C95.30081116 86.36187544 92.62858417 86.35805254 89.95629883 86.35424805 C88.04620235 86.34798525 86.13610709 86.34133861 84.22601318 86.33433533 C79.02541849 86.31690732 73.824833 86.30636843 68.62421632 86.2981298 C65.37613594 86.29298293 62.12805844 86.28690702 58.87998009 86.28061867 C48.72077507 86.26156065 38.56157734 86.24733142 28.40235788 86.2390067 C16.66946758 86.22923428 4.93676594 86.20291711 -6.79605788 86.16250581 C-15.86025313 86.13235602 -24.92439427 86.11753886 -33.9886387 86.11422569 C-39.40423048 86.11187369 -44.81962086 86.10289394 -50.23515892 86.07776451 C-55.33150267 86.0544991 -60.42751219 86.05024448 -65.52389526 86.06052589 C-67.39314701 86.06102175 -69.26241511 86.05468657 -71.13161659 86.04096985 C-73.68683343 86.02327021 -76.24084838 86.03034719 -78.79606628 86.04350281 C-79.53304707 86.03253356 -80.27002786 86.02156432 -81.0293414 86.01026267 C-86.07782966 86.07286767 -90.32287604 87.03338854 -94.02734375 90.53125 Z M-76.02734375 132.53125 C-75.44467886 145.34987755 -74.86041112 158.14529502 -74.02490234 170.94659424 C-73.9642157 171.87992836 -73.90352905 172.81326248 -73.84100342 173.77487946 C-73.77874573 174.73088799 -73.71648804 175.68689651 -73.65234375 176.671875 C-73.52151612 178.70154999 -73.39082243 180.73123362 -73.26025391 182.76092529 C-72.98929058 186.96586721 -72.71688342 191.17071218 -72.44335938 195.37548828 C-72.09442229 200.74106231 -71.7489801 206.10685471 -71.40457153 211.4727211 C-71.13649317 215.64396599 -70.86669573 219.81509833 -70.59637451 223.98619843 C-70.4683039 225.96515432 -70.34073015 227.94414244 -70.21368408 229.92316437 C-70.03611016 232.68489408 -69.85623946 235.44646526 -69.67578125 238.20800781 C-69.62484314 239.00711075 -69.57390503 239.80621368 -69.52142334 240.62953186 C-69.14895197 246.27757727 -68.62045111 251.90226073 -68.02734375 257.53125 C-67.41628281 257.71488602 -66.80522186 257.89852203 -66.17564392 258.08772278 C-38.52694926 266.43949105 -16.83968861 280.1110196 -2.71484375 305.90625 C11.37003577 332.85819584 9.74548378 360.03088238 1.97265625 388.53125 C24.74265625 388.53125 47.51265625 388.53125 70.97265625 388.53125 C71.30265625 377.31125 71.63265625 366.09125 71.97265625 354.53125 C73.95265625 353.21125 75.93265625 351.89125 77.97265625 350.53125 C77.44865234 349.40976562 77.44865234 349.40976562 76.9140625 348.265625 C76.45902344 347.28078125 76.00398437 346.2959375 75.53515625 345.28125 C74.85646484 343.81945312 74.85646484 343.81945312 74.1640625 342.328125 C70.5524029 333.84960606 70.66580426 323.27981772 73.59765625 314.59375 C76.23134933 308.30475336 80.11426332 303.25989357 84.97265625 298.53125 C83.6715236 295.67495404 82.2567762 293.60914787 80.09765625 291.34375 C72.92632463 283.20805839 71.50933835 273.96500842 71.6796875 263.4453125 C72.20166166 256.47173775 74.83276957 250.68373066 77.97265625 244.53125 C76.9969165 244.068396 76.02117676 243.60554199 75.01586914 243.12866211 C72.93094707 241.72465445 72.1046415 240.99961719 71.41574097 238.55496216 C71.22646878 236.01005629 71.22020915 233.52403811 71.28125 230.97265625 C71.28262466 230.03252182 71.28399933 229.09238739 71.28541565 228.12376404 C71.29447773 226.13065258 71.31812187 224.13756208 71.35522461 222.14477539 C71.40940567 219.13543907 71.41675737 216.12891003 71.41601562 213.11914062 C71.48785758 199.84775262 72.26733883 187.48537112 78.47265625 175.46875 C78.80797363 174.80319092 79.14329102 174.13763184 79.48876953 173.4519043 C82.68443004 167.45231405 86.83104084 162.82947018 91.65234375 158.08203125 C98.42123639 150.64080752 96.38919322 143.03358461 96.97265625 132.53125 C39.88265625 132.53125 -17.20734375 132.53125 -76.02734375 132.53125 Z M99.71875 169.84765625 C84.22525881 188.16349119 85.97265625 204.72248444 85.97265625 229.53125 C156.26265625 229.53125 226.55265625 229.53125 298.97265625 229.53125 C299.27248015 195.97206142 299.27248015 195.97206142 283.015625 168.37890625 C269.44376742 155.26028324 252.44156044 152.37719074 234.32910156 152.38598633 C233.31625092 152.38262772 232.30340027 152.3792691 231.25985718 152.37580872 C227.94015243 152.36637711 224.62049853 152.36435954 221.30078125 152.36328125 C218.97206604 152.36006323 216.64335103 152.35669876 214.31463623 152.35319519 C209.44282564 152.34722337 204.57103274 152.34535328 199.69921875 152.34594727 C193.48824036 152.34604877 187.27737659 152.33239987 181.06642532 152.31517506 C176.25856007 152.30400033 171.45072206 152.30202974 166.64284515 152.30255699 C164.35455684 152.30138499 162.06626763 152.29700755 159.77799225 152.28922462 C137.33621492 152.22003896 116.46008662 152.64208846 99.71875 169.84765625 Z M127.97265625 244.53125 C132.56446071 249.95094335 132.56446071 249.95094335 137.40234375 255.05859375 C137.96953125 255.62255859 138.53671875 256.18652344 139.12109375 256.76757812 C139.69085938 257.32896484 140.260625 257.89035156 140.84765625 258.46875 C141.440625 259.05720703 142.03359375 259.64566406 142.64453125 260.25195312 C144.08492091 261.68072674 145.52845295 263.10633132 146.97265625 264.53125 C151.89456454 260.52504558 156.41916377 256.19508798 160.91015625 251.71875 C161.50207764 251.13134033 162.09399902 250.54393066 162.70385742 249.9387207 C165.61122458 247.61012778 165.61122458 247.61012778 166.97265625 244.53125 C154.10265625 244.53125 141.23265625 244.53125 127.97265625 244.53125 Z M92.96484375 250.40234375 C87.39527695 256.56615304 85.48809718 261.41692383 85.65625 269.74609375 C86.41463911 276.42179047 89.88258074 281.26979143 94.97265625 285.53125 C101.2470978 289.80075506 106.47454549 290.65367617 113.960495 290.67169189 C114.65191536 290.67466302 115.34333573 290.67763414 116.05570823 290.6806953 C118.36617138 290.68934767 120.6765825 290.69088761 122.98706055 290.69238281 C124.64642954 290.69701348 126.30579748 290.70203848 127.96516418 290.70742798 C132.46952772 290.72053104 136.97387637 290.72699299 141.47825599 290.73143864 C144.29503882 290.73437309 147.11181761 290.73847863 149.9285984 290.74294281 C158.74922405 290.75661299 167.56984043 290.76628167 176.39047593 290.7701447 C186.55832549 290.7746227 196.72604044 290.79216062 206.89384907 290.8211453 C214.76240903 290.84279374 222.6309312 290.85285069 230.4995206 290.85418582 C235.19469146 290.85523169 239.88973571 290.86109295 244.58487511 290.87900543 C249.00491741 290.8955406 253.42473865 290.89761531 257.84480095 290.88886642 C259.46123092 290.88809893 261.07767304 290.89240065 262.69407272 290.90232468 C278.86036457 291.0760975 278.86036457 291.0760975 292.5 283.2421875 C297.62019036 277.29353132 298.75257947 271.60771063 298.48046875 263.7890625 C297.51662524 257.60563565 294.75348306 252.79885454 289.8984375 248.83984375 C284.32875523 245.22624213 279.32852662 244.28451329 272.75805664 243.84643555 C271.91755579 243.78928155 271.07705494 243.73212755 270.21108437 243.67324162 C259.16129658 242.95596174 248.10358879 242.51765636 237.03515625 242.21875 C235.97714058 242.18947041 234.91912491 242.16019081 233.82904816 242.13002396 C200.77649306 240.63912457 200.77649306 240.63912457 172.21760559 254.89778137 C165.54502797 261.50964892 159.83144414 269.03938272 155.04443359 277.11303711 C152.97265625 280.53125 152.97265625 280.53125 150.97265625 281.53125 C147.50817621 282.08556681 145.049956 282.29316077 142.09870911 280.20591736 C141.46647934 279.62741531 140.83424957 279.04891327 140.18286133 278.45288086 C139.48456207 277.81550995 138.78626282 277.17813904 138.06680298 276.52145386 C134.89121662 273.50348757 131.79495024 270.4193883 128.734375 267.28515625 C127.40718204 265.94047781 126.0797 264.59608463 124.75195312 263.25195312 C122.69032924 261.15917119 120.63116984 259.06411816 118.5769043 256.96411133 C116.57353568 254.91862631 114.56101257 252.8825303 112.546875 250.84765625 C111.93124191 250.21340225 111.31560883 249.57914825 110.68132019 248.92567444 C109.16779151 247.40304657 107.5759197 245.95908438 105.97265625 244.53125 C100.79706811 244.53125 96.71658834 246.90606815 92.96484375 250.40234375 Z M-143.02734375 294.53125 C-144.18556641 295.67207031 -144.18556641 295.67207031 -145.3671875 296.8359375 C-161.65477942 313.81958035 -166.58747606 334.2611059 -166.296875 357.20703125 C-165.78227969 374.39654248 -158.21037455 390.61751205 -147.02734375 403.53125 C-146.43179688 404.32402344 -145.83625 405.11679687 -145.22265625 405.93359375 C-132.65657414 420.80271226 -113.00617871 429.30339119 -94.02734375 431.53125 C-72.4990589 432.80337592 -50.79847132 426.97771029 -34.32543945 412.62451172 C-18.75602957 398.48657415 -7.41137238 379.95802278 -5.88647461 358.55395508 C-4.79521653 334.27551409 -11.84223992 313.72638879 -27.95703125 295.328125 C-43.11800588 279.37561355 -64.27487617 271.05352696 -86.02734375 270.28125 C-107.63949273 270.55065352 -127.7931289 279.32213271 -143.02734375 294.53125 Z M91.09765625 313.46875 C90.54335938 314.11714844 89.9890625 314.76554687 89.41796875 315.43359375 C85.47916995 321.15017471 85.23277473 326.78694542 85.97265625 333.53125 C87.79661513 340.16907504 92.40782441 344.69700832 97.97265625 348.53125 C102.16006272 350.59849991 105.65881764 350.79092326 110.3021698 350.81213379 C111.03034214 350.81807603 111.75851448 350.82401828 112.50875264 350.83014059 C114.94362615 350.8474545 117.37830229 350.85052588 119.81323242 350.85351562 C121.56127337 350.86277634 123.30931029 350.87282625 125.05734253 350.88360596 C129.80343279 350.90981801 134.5494665 350.92273703 139.29561782 350.93162727 C142.26316506 350.93749514 145.23069696 350.945706 148.19823647 350.95463562 C157.48979309 350.98197734 166.78131452 351.0013141 176.07290858 351.0090394 C186.78596662 351.01799631 197.49851372 351.0530748 208.21141642 351.11104059 C216.50036284 351.15432823 224.7891658 351.17445085 233.078224 351.17712164 C238.02505324 351.17921408 242.97140192 351.19094975 247.9181118 351.22676086 C252.57472502 351.25981646 257.23049893 351.26398922 261.88718796 351.24648285 C263.59071291 351.24494699 265.29428386 351.25356337 266.99769402 351.27339935 C276.50317459 351.37754608 284.45180682 351.15113363 291.97265625 344.53125 C297.6345221 338.29334695 298.26381403 332.85414537 298.19140625 324.69921875 C297.93208156 320.94364151 297.13176063 318.61568483 294.97265625 315.53125 C294.16828125 314.2628125 294.16828125 314.2628125 293.34765625 312.96875 C284.21370427 303.59443086 271.53342151 303.415805 259.22265625 302.90625 C258.14228088 302.85911865 257.06190552 302.8119873 255.9487915 302.76342773 C240.42257764 302.3974234 230.51411152 305.5035671 219.17077637 316.24179077 C212.74571784 322.71431934 206.68873941 329.63860075 201.15567017 336.89065552 C196.82898696 342.37801602 196.82898696 342.37801602 192.26025391 343.19555664 C185.02989039 341.73455715 181.15732059 335.84820635 176.8465271 330.25384521 C162.65278702 311.95510071 162.65278702 311.95510071 141.83856201 303.67179871 C136.40648049 303.25845249 131.04053281 303.22314518 125.59765625 303.40625 C124.00546265 303.45943893 124.00546265 303.45943893 122.38110352 303.51370239 C104.98494352 304.02354613 104.98494352 304.02354613 91.09765625 313.46875 Z M172.97265625 305.53125 C177.56446071 310.95094335 177.56446071 310.95094335 182.40234375 316.05859375 C182.96953125 316.62255859 183.53671875 317.18652344 184.12109375 317.76757812 C184.69085938 318.32896484 185.260625 318.89035156 185.84765625 319.46875 C186.440625 320.05720703 187.03359375 320.64566406 187.64453125 321.25195312 C189.08492091 322.68072674 190.52845295 324.10633132 191.97265625 325.53125 C196.89456454 321.52504558 201.41916377 317.19508798 205.91015625 312.71875 C206.50207764 312.13134033 207.09399902 311.54393066 207.70385742 310.9387207 C210.61122458 308.61012778 210.61122458 308.61012778 211.97265625 305.53125 C199.10265625 305.53125 186.23265625 305.53125 172.97265625 305.53125 Z M85.97265625 365.53125 C83.15201743 389.5364683 83.15201743 389.5364683 91.5703125 407.2734375 C96.59314912 411.15776449 100.18796328 411.67920794 106.35432434 411.67169189 C107.49113027 411.67614858 107.49113027 411.67614858 108.65090197 411.6806953 C111.19802453 411.68938766 113.74510011 411.690891 116.29223633 411.69238281 C118.11543376 411.6970106 119.93863023 411.70203521 121.76182556 411.70742798 C126.72056995 411.72055762 131.6793008 411.72699802 136.63805985 411.73143864 C139.7352118 411.7343684 142.83236004 411.73847302 145.92951012 411.74294281 C155.6172464 411.75661912 165.30497421 411.76628517 174.99271947 411.7701447 C186.18053291 411.77462618 197.36822423 411.7921777 208.55600053 411.8211453 C217.20067178 411.84275226 225.84530865 411.85284845 234.49000663 411.85418582 C239.65456216 411.85523454 244.81900291 411.86115657 249.98353004 411.87900543 C254.84182175 411.89546909 259.69991218 411.8976499 264.55822182 411.88886642 C266.34081053 411.88809514 268.12340999 411.89245078 269.90597153 411.90232468 C272.34090022 411.91502054 274.7751135 411.90918051 277.21003723 411.89874268 C278.26632669 411.91082728 278.26632669 411.91082728 279.34395534 411.92315602 C284.73678847 411.86914765 288.67609113 410.46959022 292.80078125 406.98828125 C293.27 406.44558594 293.73921875 405.90289062 294.22265625 405.34375 C294.7021875 404.81394531 295.18171875 404.28414063 295.67578125 403.73828125 C301.97619224 393.01619628 298.97265625 375.62364054 298.97265625 365.53125 C228.68265625 365.53125 158.39265625 365.53125 85.97265625 365.53125 Z M-145.02734375 426.53125 C-146.63484202 429.23761875 -148.23772834 431.9466918 -149.83984375 434.65625 C-150.29166016 435.41679687 -150.74347656 436.17734375 -151.20898438 436.9609375 C-153.64334077 441.08335125 -155.95079921 445.21258926 -158.02734375 449.53125 C-156.91939453 449.33208984 -156.91939453 449.33208984 -155.7890625 449.12890625 C-152.53966738 448.56325551 -149.28632875 448.03870441 -146.02734375 447.53125 C-144.49013672 447.28568359 -144.49013672 447.28568359 -142.921875 447.03515625 C-141.96667969 446.91011719 -141.01148438 446.78507812 -140.02734375 446.65625 C-139.16109375 446.53507812 -138.29484375 446.41390625 -137.40234375 446.2890625 C-135.02734375 446.53125 -135.02734375 446.53125 -132.91796875 447.9453125 C-130.23997675 451.60818586 -129.09688138 455.4725557 -127.77734375 459.78125 C-127.50921875 460.62171875 -127.24109375 461.4621875 -126.96484375 462.328125 C-126.30803727 464.39237394 -125.66619448 466.46137363 -125.02734375 468.53125 C-120.62785987 464.76176381 -118.07202769 459.92144986 -115.21484375 454.96875 C-114.69986328 454.10572266 -114.18488281 453.24269531 -113.65429688 452.35351562 C-113.17283203 451.52400391 -112.69136719 450.69449219 -112.1953125 449.83984375 C-111.75469482 449.08501709 -111.31407715 448.33019043 -110.86010742 447.55249023 C-109.71135426 445.38959152 -109.71135426 445.38959152 -111.02734375 442.53125 C-113.34346294 441.52235868 -113.34346294 441.52235868 -116.21484375 440.78125 C-126.60245772 437.54982301 -135.89797202 432.37634646 -145.02734375 426.53125 Z M-33.58984375 430.09375 C-42.75946791 435.87976338 -52.69934701 440.24289246 -63.02734375 443.53125 C-58.49508113 451.9434041 -53.79114001 460.24901539 -49.02734375 468.53125 C-46.96501676 466.46892301 -46.45925891 465.37530969 -45.51953125 462.6875 C-45.25527344 461.93597656 -44.99101562 461.18445313 -44.71875 460.41015625 C-44.44933594 459.62511719 -44.17992187 458.84007812 -43.90234375 458.03125 C-43.62519531 457.24621094 -43.34804687 456.46117187 -43.0625 455.65234375 C-41.56660565 451.68135418 -41.56660565 451.68135418 -41.02734375 447.53125 C-32.05403041 445.73658733 -23.85228434 447.73789238 -15.02734375 449.53125 C-16.56366954 444.03559318 -19.18152504 439.51030386 -22.08984375 434.65625 C-22.54939453 433.8725 -23.00894531 433.08875 -23.48242188 432.28125 C-25.19456376 429.36791338 -25.19456376 429.36791338 -27.02734375 426.53125 C-29.22268794 426.53125 -31.86836774 428.98059925 -33.58984375 430.09375 Z " fill="#000000" transform="translate(190.02734375,8.46875)"/>
<path d="M0 0 C1.35238724 1.14452507 2.68666607 2.31086465 4 3.5 C4.67160156 4.08007812 5.34320313 4.66015625 6.03515625 5.2578125 C16.94644678 15.30713211 25.19202681 31.02171104 26.16113281 45.98852539 C26.49528578 66.75069264 24.18544359 85.24331891 9.5 101.0625 C7.70063201 102.91562605 5.86140331 104.70733389 4 106.5 C3.34386719 107.17546875 2.68773437 107.8509375 2.01171875 108.546875 C-10.6319027 120.78438441 -29.04874444 125.17243218 -46.13671875 124.89819336 C-65.7662498 124.16368705 -82.76625156 115.43817693 -96.1875 101.25 C-108.88270811 86.32351288 -114.42012531 67.93796512 -113 48.5 C-111.1174914 34.44001393 -106.7835121 22.65892733 -98 11.5 C-97.41605469 10.73945313 -96.83210938 9.97890625 -96.23046875 9.1953125 C-72.41620893 -19.78288156 -29.01739737 -21.775534 0 0 Z M-87.0078125 21.80859375 C-95.45974662 32.94977964 -98.95488128 46.67190441 -98 60.5 C-95.64495656 76.74580817 -88.08185129 89.60800075 -75.23046875 99.66796875 C-62.90224807 107.93969336 -49.70382343 110.83513491 -35 109.5 C-30.47835729 108.56765273 -26.28497671 107.20687869 -22 105.5 C-21.26394531 105.21125 -20.52789062 104.9225 -19.76953125 104.625 C-5.86184493 98.40679294 3.36689348 86.29500698 9 72.5 C13.21638777 58.3830157 12.31884026 42.49488229 5.3515625 29.40234375 C3.67036479 26.6749859 1.89593635 24.08142363 0 21.5 C-0.7425 20.448125 -1.485 19.39625 -2.25 18.3125 C-13.27105548 7.04096599 -26.95310508 0.67026234 -42.625 0.125 C-60.86200249 0.44011019 -75.1980066 8.22961459 -87.0078125 21.80859375 Z " fill="#000000" transform="translate(147,304.5)"/>
<path d="M0 0 C2 1 2 1 3 3 C3.66250254 6.29820733 3.86233219 7.82586042 3 11 C0.10676001 15.11442464 -3.45198493 18.55459972 -7.03515625 22.0625 C-8.07338258 23.10357848 -9.11034642 24.1459174 -10.14610291 25.18945312 C-12.31681866 27.36743468 -14.50102112 29.5306084 -16.69604492 31.68408203 C-19.50395049 34.44077743 -22.27698261 37.22972583 -25.04096317 40.03038025 C-27.17550082 42.18636054 -29.32667404 44.32509366 -31.48330498 46.45895386 C-32.51250552 47.48098835 -33.53670954 48.50808072 -34.55568123 49.54031372 C-35.98370866 50.9814579 -37.43684905 52.39758501 -38.89086914 53.8125 C-39.71027481 54.62332031 -40.52968048 55.43414062 -41.37391663 56.26953125 C-44.79778341 58.52570275 -46.97651015 58.47336689 -51 58 C-53.53125 55.90234375 -53.53125 55.90234375 -56 53 C-57.04239116 51.94992454 -58.09504429 50.90996407 -59.15625 49.87890625 C-60.2708655 48.77346993 -61.38544839 47.66800073 -62.5 46.5625 C-63.05558594 46.01529297 -63.61117187 45.46808594 -64.18359375 44.90429688 C-73.44612069 35.69625539 -73.44612069 35.69625539 -75 30.9375 C-75 27.243731 -74.49868567 25.73293745 -72 23 C-68.8125 21.75 -68.8125 21.75 -65 22 C-61.90546586 23.90679801 -59.54993825 26.43086081 -57 29 C-56.14317627 29.85682373 -55.28635254 30.71364746 -54.40356445 31.59643555 C-51.93570964 34.06429036 -49.46785482 36.53214518 -47 39 C-46.29375488 38.26710754 -46.29375488 38.26710754 -45.57324219 37.51940918 C-40.66551069 32.43458544 -35.72975687 27.37823027 -30.77685547 22.33740234 C-28.9326116 20.45294637 -27.09561385 18.56137026 -25.26611328 16.66259766 C-22.63369173 13.93304932 -19.97619814 11.23024139 -17.3125 8.53125 C-16.50071289 7.67817261 -15.68892578 6.82509521 -14.85253906 5.94616699 C-9.85141718 0.94117187 -7.15074504 -1.20230278 0 0 Z " fill="#000000" transform="translate(136,332)"/>
<path d="M0 0 C4.45850936 0.79616239 5.90783917 1.93313458 8.5 5.625 C9.125 9.125 9.125 9.125 8.5 12.625 C5.90783917 16.31686542 4.45850936 17.45383761 0 18.25 C-4.45850936 17.45383761 -5.90783917 16.31686542 -8.5 12.625 C-9.125 9.125 -9.125 9.125 -8.5 5.625 C-5.90783917 1.93313458 -4.45850936 0.79616239 0 0 Z " fill="#000000" transform="translate(322.5,205.375)"/>
<path d="M0 0 C2.9375 1.4375 2.9375 1.4375 5 4 C5.71014629 7.14658314 5.71014629 9.85341686 5 13 C2.30081929 16.35352755 0.68563364 16.90377072 -3.5625 17.5 C-7 17 -7 17 -9.375 15.4375 C-11.50903182 12.23645227 -11.86339823 9.82484946 -12 6 C-10.05586997 0.00559906 -5.78687563 -0.59864231 0 0 Z " fill="#000000" transform="translate(445,206)"/>
<path d="M0 0 C3.28573474 2.16166759 3.90007665 3.63361438 4.9375 7.4375 C5.00698608 11.39820668 4.43366566 12.93538398 2 16 C-1.13871188 17.56935594 -3.53855822 17.35201103 -7 17 C-10.69186542 14.40783917 -11.82883761 12.95850936 -12.625 8.5 C-11.33940733 1.30068103 -7.0374661 -1.15158536 0 0 Z " fill="#000000" transform="translate(366,206)"/>
<path d="M0 0 C3.08364499 1.85018699 4.63905184 3.06153478 5.9375 6.4375 C6.0297093 10.2180815 4.83771085 12.65035474 2.875 15.8125 C-0.23402778 17.78155093 -3.4946086 17.62192428 -7 17 C-10.33219018 14.86398066 -10.89315459 13.3672811 -12 9.5625 C-12 6 -12 6 -10.1875 3.125 C-6.80120612 -0.16454263 -4.68230115 -0.45904913 0 0 Z " fill="#000000" transform="translate(425,176)"/>
<path d="M0 0 C2.9168105 2.23622138 3.88797696 4.15982716 4.375 7.8125 C4 11 4 11 2 13.875 C-2.16273171 16.82360163 -3.97544571 16.7975483 -9 16 C-12.2998703 13.277607 -12.91673192 11.67804009 -13.4375 7.4375 C-12.98462662 3.87920917 -12.55248298 2.45794657 -10 0 C-6.22941703 -1.25686099 -3.86146303 -0.82745636 0 0 Z " fill="#000000" transform="translate(347,177)"/>
<path d="M0 0 C3.41639845 1.9739191 4.72268412 3.18538459 6 6.9375 C6 10.5835398 5.16463754 12.11381662 3 15 C1 17 1 17 -2.875 17.375 C-5.88505365 17.28759372 -6.85265608 17.09822928 -9.4375 15.375 C-11.37231132 12.4340868 -11.92809193 10.52349544 -12 7 C-9.40008444 1.28018577 -6.27986744 -0.75358409 0 0 Z " fill="#000000" transform="translate(405,206)"/>
<path d="M0 0 C3.80470451 0.7133821 5.41196019 1.67868421 8 4.5625 C9.1659741 8.57053597 9.43240501 10.61532711 7.6875 14.4375 C6 16.5625 6 16.5625 4 17.5625 C-3.0521327 18.13122038 -3.0521327 18.13122038 -6.5 16.0625 C-8.59158203 12.57652996 -8.8876276 9.46034294 -8 5.5625 C-5.55871269 2.11597674 -4.17033126 0.78193711 0 0 Z " fill="#000000" transform="translate(382,175.4375)"/>
</svg>
