<svg version="1.0" xmlns="http://www.w3.org/2000/svg" width="512.000000ptpx" height="512.000000ptpx" viewBox="0 0 512.000000 512.000000" preserveAspectRatio="xMidYMid meet" transform="rotate(0) scale(1, 1)">

<g transform="translate(0.000000,512.000000) scale(0.100000,-0.100000)" fill="#ffb936" stroke="none">
<path d="M1815 5005 l-25 -24 0 -330 0 -330 -392 -3 c-386 -3 -394 -3 -443&#10;-26 -66 -30 -128 -93 -156 -156 -20 -44 -24 -72 -27 -206 -4 -146 -3 -157 17&#10;-182 21 -26 27 -27 114 -30 l92 -3 37 -560 c20 -308 37 -587 37 -621 l1 -61&#10;-97 -6 c-553 -33 -963 -553 -868 -1100 28 -158 85 -290 185 -421 27 -37 50&#10;-69 50 -72 0 -3 -54 -99 -121 -214 -130 -225 -136 -246 -88 -282 26 -20 27&#10;-20 179 11 85 17 157 31 161 31 4 0 29 -64 55 -142 59 -178 91 -215 151 -173&#10;12 8 81 118 153 245 l133 230 76 0 76 -1 136 -237 c147 -257 162 -273 216&#10;-242 21 12 36 44 78 164 28 83 56 151 61 153 5 2 76 -10 158 -27 165 -33 191&#10;-30 209 23 8 26 -3 50 -116 245 l-125 217 20 25 c10 14 33 44 51 67 l31 43&#10;392 0 393 0 32 -60 c38 -72 83 -113 159 -149 l55 -26 950 0 c893 0 953 1 1002&#10;18 70 24 145 93 180 165 28 57 28 58 31 286 3 225 3 229 -19 252 -12 13 -30&#10;24 -39 24 -13 0 -10 13 19 72 33 66 36 78 36 162 0 78 -4 99 -28 151 -15 33&#10;-48 81 -74 106 l-45 47 42 42 c23 23 56 72 73 108 29 60 32 77 32 158 0 86 -2&#10;96 -37 163 -32 64 -34 71 -17 71 10 0 28 9 39 20 19 19 20 33 20 215 0 224&#10;-13 310 -64 420 -69 147 -174 253 -321 325 -144 70 -160 71 -860 68 -669 -4&#10;-631 -1 -769 -54 -8 -3 -10 15 -8 61 l4 65 87 0 c134 0 131 -4 131 194 0 188&#10;-10 230 -71 300 -22 25 -65 57 -97 73 l-57 28 -397 3 -398 3 0 335 c0 321 -1&#10;335 -20 354 -18 18 -33 20 -185 20 -163 0 -166 0 -190 -25z m255 -400 l0 -285&#10;-70 0 -70 0 0 285 0 285 70 0 70 0 0 -285z m947 -451 c61 -45 73 -77 73 -190&#10;l0 -104 -1090 0 -1090 0 0 83 c0 45 5 98 10 119 12 43 63 95 105 107 17 5 454&#10;9 997 8 964 -2 967 -2 995 -23z m-152 -546 l-7 -113 -62 -65 c-68 -72 -134&#10;-190 -161 -285 -13 -44 -18 -117 -22 -275 -5 -210 -5 -216 17 -242 12 -16 30&#10;-28 42 -28 11 0 18 -3 16 -7 -69 -137 -72 -147 -71 -228 0 -105 28 -176 95&#10;-250 l50 -55 -45 -50 c-52 -58 -84 -121 -98 -193 -16 -83 6 -194 51 -257 24&#10;-34 25 -40 5 -40 -9 0 -27 -11 -40 -25 -24 -24 -25 -28 -25 -185 l0 -160 -350&#10;0 c-192 0 -350 1 -350 3 0 1 9 26 20 56 59 154 70 375 27 541 -86 334 -335&#10;593 -656 683 -76 21 -81 24 -86 52 -5 37 -75 1146 -75 1198 l0 37 866 0 867 0&#10;-8 -112z m1665 -128 c162 -64 274 -177 332 -338 17 -47 22 -88 26 -229 l4&#10;-173 -1072 0 -1073 0 6 163 c5 176 17 230 69 329 41 77 135 168 218 212 124&#10;65 118 65 805 63 l620 -2 65 -25z m-940 -883 c0 -1 -48 -51 -108 -110 l-107&#10;-107 -110 110 -110 110 218 0 c119 0 217 -1 217 -3z m1126 -8 c65 -17 138 -85&#10;160 -151 34 -104 -7 -215 -100 -273 l-49 -30 -906 0 c-1005 0 -930 -5 -999 66&#10;-47 49 -66 96 -66 164 1 65 19 111 63 158 31 34 91 67 123 67 16 0 78 -56 213&#10;-190 160 -159 196 -190 220 -190 24 0 61 32 224 195 l196 195 438 0 c292 0&#10;453 -4 483 -11z m-3471 -283 c93 -25 233 -98 309 -163 129 -108 224 -259 267&#10;-424 30 -113 30 -280 0 -393 -71 -268 -267 -478 -531 -567 -81 -27 -113 -33&#10;-220 -37 -142 -5 -249 14 -363 67 -138 62 -282 190 -361 319 -184 303 -142&#10;704 101 962 119 127 260 208 428 246 77 18 288 12 370 -10z m2355 -511 c145&#10;-144 202 -195 220 -195 18 0 75 51 220 196 l197 195 245 -3 245 -3 49 -30 c30&#10;-19 60 -49 79 -79 26 -43 30 -59 30 -120 0 -59 -5 -79 -27 -116 -14 -25 -40&#10;-55 -57 -68 -73 -53 -47 -52 -979 -52 -627 0 -875 3 -903 12 -22 6 -57 27 -79&#10;46 -113 96 -113 259 -1 353 63 54 85 57 336 58 l229 1 196 -195z m430 187 c0&#10;-4 -46 -53 -103 -110 l-102 -102 -110 110 -110 110 213 0 c116 0 212 -3 212&#10;-8z m860 -754 c0 -84 -5 -169 -10 -190 -13 -45 -75 -103 -127 -117 -54 -15&#10;-1813 -15 -1868 0 -51 14 -110 73 -124 124 -6 22 -11 106 -11 188 l0 147 1070&#10;0 1070 0 0 -152z m-4255 -559 c44 -20 100 -43 125 -50 25 -7 47 -14 49 -16 5&#10;-4 -143 -263 -151 -263 -3 0 -21 44 -38 98 -18 53 -39 105 -48 115 -19 22 -62&#10;21 -174 -2 -49 -10 -88 -17 -88 -15 0 2 13 25 28 51 16 26 47 80 70 120 l42&#10;72 53 -36 c28 -20 88 -53 132 -74z m1059 -7 c36 -62 66 -117 66 -121 0 -5 -39&#10;0 -87 10 -164 34 -173 29 -218 -112 -16 -50 -32 -92 -36 -95 -7 -4 -149 236&#10;-149 253 0 6 14 13 30 17 56 11 177 66 251 115 41 27 75 48 75 48 1 -1 32 -53&#10;68 -115z"/>
<path d="M3371 3333 c-11 -10 -24 -32 -27 -50 -5 -27 -1 -37 24 -63 36 -36 71&#10;-39 106 -7 36 32 39 84 6 117 -25 25 -80 26 -109 3z"/>
<path d="M3765 3325 c-57 -56 0 -149 79 -129 56 14 76 92 33 132 -32 30 -81&#10;29 -112 -3z"/>
<path d="M4162 3327 c-42 -44 -20 -119 37 -132 77 -17 129 67 80 129 -27 35&#10;-86 36 -117 3z"/>
<path d="M3189 3045 c-76 -41 -49 -149 37 -149 96 0 108 138 14 158 -14 3 -37&#10;-1 -51 -9z"/>
<path d="M3594 3050 c-28 -11 -54 -48 -54 -76 0 -29 34 -70 65 -78 29 -7 79&#10;15 89 39 17 45 -9 115 -43 115 -5 0 -15 2 -23 4 -7 3 -23 1 -34 -4z"/>
<path d="M3994 3050 c-55 -22 -70 -92 -29 -130 50 -47 135 -13 135 55 0 51&#10;-60 94 -106 75z"/>
<path d="M4384 3046 c-33 -15 -44 -33 -44 -71 0 -37 10 -55 41 -71 36 -18 73&#10;-10 99 23 26 34 25 66 -2 97 -30 32 -56 38 -94 22z"/>
<path d="M870 2194 c-80 -21 -206 -85 -273 -138 -104 -84 -192 -225 -228 -364&#10;-59 -230 11 -482 181 -651 85 -85 156 -131 258 -167 248 -86 510 -30 699 150&#10;232 219 286 537 140 821 -31 60 -62 101 -126 165 -144 143 -286 201 -490 199&#10;-59 0 -131 -7 -161 -15z m353 -152 c220 -80 362 -286 362 -522 -1 -148 -53&#10;-276 -156 -380 -172 -175 -425 -213 -653 -98 -77 39 -181 143 -224 224 -109&#10;209 -72 472 91 638 70 71 133 111 227 144 56 19 80 22 180 19 86 -2 130 -9&#10;173 -25z"/>
<path d="M1093 1598 l-203 -202 -88 87 c-94 94 -123 106 -162 67 -40 -40 -28&#10;-67 86 -190 105 -114 135 -139 164 -140 8 0 123 109 257 242 198 197 243 247&#10;243 270 0 30 -40 68 -73 68 -14 0 -92 -70 -224 -202z"/>
</g>
</svg>